<?xml version="1.0" encoding="UTF-8" standalone="no" ?>
<!DOCTYPE svg PUBLIC "-//W3C//DTD SVG 1.1//EN" "http://www.w3.org/Graphics/SVG/1.1/DTD/svg11.dtd">
<svg xmlns="http://www.w3.org/2000/svg" xmlns:xlink="http://www.w3.org/1999/xlink" version="1.1" width="100" height="100" viewBox="0 0 100 100" xml:space="preserve">
<desc>Created with Fabric.js 3.6.6</desc>
<defs>
</defs>
<g transform="matrix(0.42 0 0 0.42 50.34 50.11)"  >
<g style=""   >
		<g transform="matrix(1 0 0 1 -0.05 0.25)"  >
<path style="stroke: none; stroke-width: 1; stroke-dasharray: none; stroke-linecap: butt; stroke-dashoffset: 0; stroke-linejoin: miter; stroke-miterlimit: 4; fill: rgb(255,255,255); fill-rule: nonzero; opacity: 1;"  transform=" translate(-223.3, -223.05)" d="M 223.3 111.8 C 161.9 111.8 112 161.6 112 223 c 0 61.5 49.8 111.3 111.3 111.3 S 334.6 284.5 334.6 223 C 334.6 161.6 284.8 111.8 223.3 111.8 z" stroke-linecap="round" />
</g>
		<g transform="matrix(1 0 0 1 -5.9 3.9)"  >
<path style="stroke: none; stroke-width: 1; stroke-dasharray: none; stroke-linecap: butt; stroke-dashoffset: 0; stroke-linejoin: miter; stroke-miterlimit: 4; fill: rgb(28,31,42); fill-rule: nonzero; opacity: 1;"  transform=" translate(-217.45, -226.7)" d="M 239.9 262.4 c 0 2.1 -1.1 3.2 -3.2 3.2 h -20 c -2.1 0 -3.2 -1.1 -3.2 -3.2 v -48.2 h -15.3 c -2.1 0 -3.2 -1.1 -3.2 -3.2 v -20 c 0 -2.1 1.1 -3.2 3.2 -3.2 h 39 c 2.1 0 2.6 1.1 2.6 2.6 V 262.4 z" stroke-linecap="round" />
</g>
</g>
</g>
</svg>